<?xml version="1.0" encoding="UTF-8" standalone="no"?>
<!-- Created with Inkscape (http://www.inkscape.org/) -->

<svg
   width="512"
   height="512"
   viewBox="0 0 512 512"
   version="1.1"
   id="svg5"
   inkscape:export-filename="C:\Users\Martin\Desktop\wizard-unlock2.png"
   inkscape:export-xdpi="96"
   inkscape:export-ydpi="96"
   inkscape:version="1.1.2 (b8e25be833, 2022-02-05)"
   sodipodi:docname="vector.svg"
   xmlns:inkscape="http://www.inkscape.org/namespaces/inkscape"
   xmlns:sodipodi="http://sodipodi.sourceforge.net/DTD/sodipodi-0.dtd"
   xmlns="http://www.w3.org/2000/svg"
   xmlns:svg="http://www.w3.org/2000/svg">
  <sodipodi:namedview
     id="namedview7"
     pagecolor="#ffffff"
     bordercolor="#666666"
     borderopacity="1.0"
     inkscape:pageshadow="2"
     inkscape:pageopacity="0.0"
     inkscape:pagecheckerboard="0"
     inkscape:document-units="px"
     showgrid="false"
     inkscape:zoom="1.7050781"
     inkscape:cx="256"
     inkscape:cy="255.70676"
     inkscape:window-width="2560"
     inkscape:window-height="1377"
     inkscape:window-x="-8"
     inkscape:window-y="-8"
     inkscape:window-maximized="1"
     inkscape:current-layer="g51" />
  <defs
     id="defs2" />
  <g
     inkscape:label="Layer 1"
     inkscape:groupmode="layer"
     id="layer1">
    <g
       id="g51"
       transform="matrix(32.074405,0,0,32.074405,1.9834147,-3.4587349)">
      <g
         id="g50">
	<path
   style="fill:#3f83e5;fill-opacity:1"
   d="M 11.649,10.797 C 11.624,10.783 11.596,10.775 11.57,10.765 L 8.0387967,1.183 C 7.8519006,0.61229024 7.547208,0.34428761 7.166,1.303 5.9282645,4.4588501 4.6147175,7.6765623 3.414,10.846 c -0.887,0.382 -2.531,1.252 -2.331,2.391 0.153,0.871 1.085,1.708 6.832,1.923 0.118,0.002 0.241,0.003 0.368,0.003 2.154,0 5.412,-0.241 5.777,-1.669 0.283,-1.105 -1.139,-2.021 -2.411,-2.697 z M 7.811,13.959 C 2.941,14.038 2.328,12.943 2.2,12.807 2.254,12.688 2.53,12.515 2.798,12.33 c -0.041,0.129 -0.069,0.225 -0.076,0.271 -0.102,0.71 8.629,1.457 9.625,0 L 12.25,12.345 c 0.569,0.411 0.638,0.618 0.648,0.618 -0.247,0.434 -2.031,0.945 -5.087,0.996 z"
   id="path48"
   sodipodi:nodetypes="cccccccscccccccccc" />

</g>
      <g
         id="g52">
</g>
      <g
         id="g54">
</g>
      <g
         id="g56">
</g>
      <g
         id="g58">
</g>
      <g
         id="g60">
</g>
      <g
         id="g62">
</g>
      <g
         id="g64">
</g>
      <g
         id="g66">
</g>
      <g
         id="g68">
</g>
      <g
         id="g70">
</g>
      <g
         id="g72">
</g>
      <g
         id="g74">
</g>
      <g
         id="g76">
</g>
      <g
         id="g78">
</g>
      <g
         id="g80">
</g>
      <g
         style="fill:#ffffff"
         id="g176"
         transform="matrix(0.27575206,0,0,0.27575206,4.2600667,5.1254785)">
        <path
           fill-rule="evenodd"
           clip-rule="evenodd"
           d="m 8.29733,5.55276 c 1.16851,-1.46064 3.07087,-2.12211 4.89357,-1.7015 2.5143,0.58023 4.1225,3.01374 3.7074,5.52914 0.2555,0.05291 0.4967,0.12923 0.7288,0.24097 0.7654,0.3686 1.3829,0.98613 1.7515,1.75153 0.2058,0.4273 0.2914,0.8858 0.332,1.4068 0.0394,0.5062 0.0394,1.1303 0.0394,1.904 v 0.062 c 0,1.0396 0,1.8635 -0.0518,2.5286 -0.0529,0.68 -0.1633,1.2566 -0.4186,1.7866 -0.4669,0.9696 -1.2491,1.7518 -2.2187,2.2187 -0.53,0.2553 -1.1066,0.3657 -1.7866,0.4186 -0.6651,0.0518 -1.489,0.0518 -2.5286,0.0518 h -1.4914 c -1.0396,0 -1.86352,0 -2.52864,-0.0518 C 8.04571,21.6453 7.46914,21.5349 6.93905,21.2796 5.96954,20.8127 5.18729,20.0305 4.7204,19.0609 4.46512,18.5309 4.35472,17.9543 4.30178,17.2743 4.24999,16.6092 4.25,15.7853 4.25,14.7457 v -0.062 C 4.24999,13.91 4.24999,13.2859 4.2894,12.7797 4.32996,12.2587 4.41561,11.8002 4.62137,11.3729 4.98997,10.6075 5.60753,9.98997 6.37294,9.62137 6.8002,9.41561 7.25873,9.32996 7.77969,9.2894 8.28587,9.24999 8.90999,9.24999 9.68375,9.25 h 4.63245 c 0.3983,0 0.757,-10e-6 1.0803,0.00537 C 15.7551,7.47416 14.632,5.72326 12.8536,5.31284 11.5928,5.0219 10.2769,5.47945 9.46863,6.4898 L 9.08565,6.96852 C 8.8269,7.29197 8.35493,7.34441 8.03148,7.08565 7.70803,6.8269 7.65559,6.35493 7.91435,6.03148 Z M 14,14 c 0,0.784 -0.4511,1.4626 -1.1079,1.7905 l 0.2992,1.7951 c 0.0901,0.5405 0.1351,0.8108 -0.0147,0.9876 C 13.0268,18.75 12.7529,18.75 12.2049,18.75 h -0.4098 c -0.548,0 -0.8219,0 -0.9717,-0.1768 -0.1498,-0.1768 -0.1048,-0.4471 -0.0147,-0.9876 l 0.2992,-1.7951 C 10.4511,15.4626 10,14.784 10,14 c 0,-1.1046 0.8954,-2 2,-2 1.1046,0 2,0.8954 2,2 z"
           fill="#000000"
           id="path167"
           style="fill:#e5a13f;fill-opacity:0.62383175" />
      </g>
    </g>
  </g>
</svg>
